<?xml version="1.0" standalone="no"?>
<!DOCTYPE svg PUBLIC "-//W3C//DTD SVG 20010904//EN"
 "http://www.w3.org/TR/2001/REC-SVG-20010904/DTD/svg10.dtd">
<svg version="1.0" xmlns="http://www.w3.org/2000/svg"
 width="104.000000pt" height="104.000000pt" viewBox="0 0 104.000000 104.000000"
 preserveAspectRatio="xMidYMid meet">
<metadata>
Created by potrace 1.11, written by Peter Selinger 2001-2013
</metadata>
<g transform="translate(0.000000,104.000000) scale(0.100000,-0.100000)"
fill="#000000" stroke="none">
<path d="M0 520 l0 -500 520 0 520 0 0 500 0 500 -520 0 -520 0 0 -500z m318
228 c30 -30 8 -71 -50 -96 -42 -17 -34 -32 17 -32 25 0 45 -4 45 -10 0 -6 -27
-10 -60 -10 -51 0 -60 3 -60 18 0 26 15 44 52 61 36 18 49 48 23 57 -8 4 -24
-1 -34 -10 -10 -9 -21 -16 -24 -16 -12 0 -7 38 6 43 23 10 73 7 85 -5z m165
-45 l36 -58 1 58 c0 44 3 57 15 57 12 0 15 -16 15 -80 0 -70 -2 -80 -18 -80
-11 0 -31 22 -52 57 l-35 58 -3 -58 c-5 -86 -22 -68 -22 23 0 99 12 103 63 23z
m261 36 c20 -16 26 -29 26 -58 0 -54 -29 -81 -85 -81 l-45 0 0 80 0 80 39 0
c24 0 48 -8 65 -21z m-364 -294 c19 -22 4 -31 -26 -15 -31 17 -54 6 -67 -34
-12 -36 15 -79 46 -74 29 4 36 38 8 38 -12 0 -21 5 -21 10 0 6 16 10 35 10 34
0 35 -1 35 -39 0 -31 -4 -40 -17 -40 -10 0 -31 -1 -46 -2 -42 -2 -72 32 -72
82 0 31 6 46 24 60 28 23 84 25 101 4z m120 -65 c0 -47 -4 -80 -10 -80 -6 0
-10 33 -10 80 0 47 4 80 10 80 6 0 10 -33 10 -80z m210 65 c19 -22 4 -31 -26
-15 -31 17 -55 5 -68 -33 -12 -34 16 -80 47 -75 29 4 36 38 8 38 -12 0 -21 5
-21 10 0 6 16 10 35 10 34 0 35 -1 35 -39 0 -32 -4 -40 -17 -39 -10 1 -28 -2
-40 -6 -15 -5 -29 0 -49 18 -24 20 -29 31 -28 67 1 31 7 48 24 61 27 22 83 24
100 3z"/>
<path d="M670 680 c0 -53 2 -60 19 -60 49 0 70 76 29 104 -40 28 -48 21 -48
-44z"/>
</g>
</svg>
